# xmcd CD database file generated by OrangeCD 5.2
#
# Track frame offsets:
#	150
#	12767
#	36085
#	58875
#
# Disc length: 1009 seconds
#
# Revision: 0
# Processed by: cddbd v1.5.1PL0 Copyright (c) Steve Scherf et al.
# Submitted via: OrangeCD 5.2
#
DISCID=2b03ef04
DTITLE=Shelly Bhushan - The Shelly Show
DYEAR=1900
DGENRE=
TTITLE0=Goodtime
TTITLE1=Run
TTITLE2=Taken
TTITLE3=Too Hard to Fall
EXTD=
EXTT0=
EXTT1=
EXTT2=
EXTT3=
PLAYORDER=
